<?xml version="1.0" standalone="no"?>
<!DOCTYPE svg PUBLIC "-//W3C//DTD SVG 20010904//EN"
 "http://www.w3.org/TR/2001/REC-SVG-20010904/DTD/svg10.dtd">
<svg version="1.0" xmlns="http://www.w3.org/2000/svg"
 width="3000.000000pt" height="3000.000000pt" viewBox="0 0 3000.000000 3000.000000"
 preserveAspectRatio="xMidYMid meet">
<metadata>
Created by potrace 1.14, written by Peter Selinger 2001-2017
</metadata>
<g transform="translate(0.000000,3000.000000) scale(0.100000,-0.100000)"
fill="#000000" stroke="none">
<path d="M16127 23023 c-2 -1 -81 -5 -177 -8 -251 -9 -361 -13 -480 -19 -58
-3 -150 -8 -205 -10 -135 -7 -308 -17 -375 -22 -30 -2 -82 -6 -115 -8 -127 -9
-222 -16 -275 -21 -135 -11 -196 -17 -211 -20 -9 -2 -38 -6 -65 -9 -27 -3 -74
-9 -104 -12 -30 -4 -75 -9 -100 -11 -74 -7 -302 -7 -350 1 -25 4 -63 9 -85 12
-22 3 -55 7 -74 9 -19 2 -50 7 -70 11 -20 3 -56 8 -81 10 -25 2 -63 6 -85 9
-262 34 -1278 23 -1820 -20 -44 -3 -105 -8 -135 -10 -30 -2 -80 -6 -110 -10
-30 -3 -73 -8 -95 -10 -22 -2 -40 -4 -40 -5 0 0 -21 -3 -46 -5 -25 -2 -59 -6
-75 -9 -16 -2 -58 -8 -94 -12 -91 -10 -105 -12 -105 -14 0 -2 -11 -3 -25 -4
-14 -1 -41 -5 -60 -9 -71 -14 -116 -20 -142 -21 -16 -1 -28 -3 -28 -6 0 -3 -8
-6 -17 -7 -26 -1 -94 -11 -123 -18 -29 -6 -61 -12 -110 -20 -19 -3 -48 -8 -65
-12 -16 -4 -37 -7 -45 -8 -112 -10 -151 -38 -240 -170 -51 -76 -170 -310 -170
-335 0 -7 -6 -26 -14 -43 -18 -40 -66 -197 -60 -197 3 0 0 -8 -5 -17 -5 -10
-12 -34 -15 -53 -3 -19 -8 -46 -11 -60 -4 -14 -8 -38 -11 -55 -2 -16 -6 -41
-8 -55 -11 -66 -19 -128 -21 -155 -1 -16 -3 -30 -4 -30 -1 0 -4 -29 -6 -65
-10 -169 -16 -231 -30 -365 -3 -27 -7 -68 -9 -90 -2 -22 -7 -56 -11 -75 -3
-19 -8 -51 -10 -70 -3 -19 -6 -44 -9 -55 -2 -11 -7 -42 -10 -70 -4 -27 -11
-72 -16 -100 -5 -27 -12 -66 -14 -85 -3 -19 -7 -44 -10 -55 -2 -11 -7 -42 -10
-70 -4 -27 -9 -61 -11 -75 -6 -28 -18 -119 -30 -224 -2 -17 -6 -49 -9 -71 -3
-22 -8 -56 -10 -75 -2 -19 -10 -80 -16 -135 -7 -55 -14 -116 -15 -135 -2 -19
-4 -35 -5 -35 -1 0 -3 -18 -5 -40 -9 -116 -17 -193 -21 -217 -4 -28 -13 -107
-19 -183 -2 -22 -6 -74 -10 -115 -37 -404 -33 -792 11 -1030 4 -19 8 -44 9
-55 1 -11 3 -20 4 -20 1 0 4 -11 6 -25 11 -73 16 -101 30 -169 9 -40 14 -75
12 -78 -8 -7 -57 8 -57 18 0 15 -57 10 -70 -6 -7 -8 -9 -15 -5 -15 4 0 3 -6
-3 -12 -12 -16 -30 -102 -37 -183 -3 -33 -10 -89 -15 -125 -4 -36 -8 -130 -7
-210 l2 -145 -625 -2 c-344 -1 -731 -4 -860 -7 -418 -9 -689 -7 -1135 9 -332
11 -387 16 -412 37 -7 6 -13 8 -13 5 0 -4 -21 3 -47 14 -27 12 -55 22 -63 24
-29 7 -146 57 -215 93 -91 47 -399 252 -425 283 -3 3 -12 10 -21 15 -51 28
-313 282 -476 461 -55 59 -144 170 -208 259 -11 15 -25 32 -30 38 -6 6 -22 27
-35 46 -14 19 -38 50 -55 69 -42 49 -138 152 -150 163 -5 5 -39 36 -75 69 -36
32 -73 62 -82 65 -10 3 -18 9 -18 14 0 23 -143 57 -165 40 -5 -5 -12 -8 -15
-9 -32 -1 -80 -42 -105 -90 -13 -27 -32 -107 -27 -123 1 -3 4 -21 7 -40 7 -40
37 -138 61 -193 9 -22 15 -40 13 -40 -2 0 4 -13 13 -30 25 -45 78 -181 78
-199 0 -9 5 -16 10 -16 6 0 10 -11 10 -23 0 -13 3 -27 7 -31 7 -6 31 -67 38
-96 2 -8 4 -17 5 -20 1 -3 2 -8 1 -12 0 -4 6 -34 15 -65 8 -32 17 -69 20 -83
9 -47 13 -65 19 -90 4 -14 9 -41 11 -60 3 -19 8 -42 11 -50 5 -13 9 -32 16
-80 2 -8 5 -19 8 -25 4 -5 12 -35 19 -65 7 -30 15 -59 19 -65 3 -5 7 -19 9
-30 1 -11 17 -65 34 -120 18 -55 32 -102 33 -105 1 -3 9 -23 18 -44 10 -21 23
-57 31 -80 8 -23 58 -126 111 -231 145 -284 175 -345 175 -355 0 -6 5 -10 10
-10 6 0 10 -5 10 -12 0 -17 121 -252 131 -256 5 -2 9 -8 9 -13 0 -12 82 -143
92 -147 4 -2 8 -10 8 -17 0 -7 3 -15 8 -17 4 -2 32 -34 62 -73 130 -167 257
-290 360 -348 46 -26 87 -47 91 -47 5 0 9 -4 9 -10 0 -5 6 -10 13 -10 7 0 48
-22 90 -50 42 -27 79 -50 82 -50 2 0 34 -18 70 -40 36 -22 69 -40 73 -40 4 0
44 -23 90 -50 46 -28 87 -50 93 -50 5 0 9 -4 9 -8 0 -4 19 -18 43 -30 90 -48
142 -77 147 -82 3 -3 68 -37 145 -75 77 -39 142 -73 143 -77 2 -5 9 -8 14 -8
6 0 106 -47 222 -104 116 -56 229 -111 251 -121 22 -10 72 -32 110 -50 39 -17
104 -44 145 -59 41 -15 84 -31 95 -36 11 -5 67 -23 125 -40 58 -17 112 -34
120 -37 8 -4 19 -7 24 -7 21 -2 14 -24 -27 -86 -37 -57 -116 -210 -161 -310
-30 -68 -96 -250 -96 -265 0 -8 -4 -15 -8 -15 -5 0 -9 -6 -9 -12 0 -14 -30
-123 -40 -148 -3 -8 -7 -17 -8 -20 0 -3 -10 -34 -22 -70 -21 -66 -37 -138 -48
-220 -4 -24 -9 -48 -12 -53 -4 -6 -16 -218 -15 -262 2 -70 31 -196 70 -302 17
-46 28 -83 25 -83 -3 0 -1 -6 4 -12 9 -11 15 -35 25 -93 0 -5 5 -26 10 -45 4
-19 10 -80 13 -135 6 -107 13 -209 20 -265 23 -197 23 -335 1 -480 -2 -8 -7
-40 -11 -70 -5 -30 -9 -57 -10 -60 -1 -3 -5 -32 -10 -65 -9 -62 -11 -73 -14
-77 -1 -2 -4 -28 -6 -58 -2 -30 -6 -68 -9 -85 -16 -90 -19 -112 -20 -127 0
-10 -4 -18 -9 -18 -4 0 -6 -4 -3 -9 3 -5 2 -42 -4 -82 -10 -84 -19 -200 -25
-339 -2 -52 -5 -95 -5 -95 -2 0 -7 -85 -14 -230 -3 -67 -10 -143 -15 -170 -5
-27 -8 -106 -8 -177 1 -70 -1 -128 -4 -128 -3 0 -4 -15 -2 -33 2 -17 6 -68 8
-112 4 -80 11 -177 20 -270 3 -27 7 -75 10 -105 2 -30 6 -71 9 -90 19 -139 27
-220 21 -220 -3 0 -22 11 -43 24 -20 14 -95 44 -167 67 -71 22 -139 45 -150
50 -18 7 -111 33 -160 44 -176 40 -246 48 -400 48 -242 0 -401 -34 -592 -125
-37 -18 -71 -31 -75 -30 -5 1 -8 -3 -8 -8 0 -6 -6 -10 -14 -10 -8 0 -16 -3
-18 -7 -1 -5 -20 -16 -40 -27 -20 -10 -46 -27 -57 -37 -11 -11 -24 -19 -30
-19 -5 0 -11 -4 -13 -8 -1 -5 -25 -23 -53 -42 -27 -19 -55 -39 -61 -45 -7 -5
-35 -30 -64 -55 -70 -61 -124 -115 -190 -189 -30 -35 -60 -68 -65 -75 -6 -6
-24 -29 -40 -51 -17 -22 -35 -46 -42 -53 -54 -57 -228 -375 -224 -409 0 -2 -6
-18 -15 -38 -8 -19 -11 -35 -8 -35 4 0 2 -6 -4 -13 -11 -12 -50 -155 -58 -206
-22 -150 -21 -364 1 -471 3 -14 8 -38 10 -55 26 -170 100 -354 195 -481 46
-61 167 -187 230 -238 52 -42 214 -140 242 -145 4 -1 32 -13 61 -26 47 -21
110 -41 157 -50 8 -2 15 -4 15 -5 0 -1 11 -3 25 -6 14 -2 39 -7 55 -10 17 -3
38 -5 47 -5 10 0 16 -8 15 -20 -1 -10 -5 -19 -10 -19 -4 0 -5 -4 -2 -10 3 -5
1 -10 -5 -10 -6 0 -8 -4 -5 -10 3 -5 1 -10 -5 -10 -6 0 -9 -4 -6 -9 3 -5 16
-7 29 -4 12 3 19 3 16 -1 -4 -4 -20 -8 -35 -9 -23 -2 -29 -8 -28 -25 0 -12 -2
-20 -4 -17 -7 7 -81 -109 -75 -117 2 -5 0 -8 -6 -8 -5 0 -8 -9 -6 -20 2 -11
-1 -20 -6 -20 -6 0 -7 -4 -4 -10 3 -5 1 -10 -4 -10 -6 0 -11 -5 -11 -11 0 -5
6 -7 12 -4 7 4 5 0 -5 -8 -10 -8 -19 -30 -20 -50 -1 -25 -6 -33 -16 -29 -10 4
-13 1 -8 -11 3 -9 2 -17 -4 -17 -6 0 -8 -4 -4 -10 3 -5 13 -7 23 -4 14 5 14 4
3 -4 -8 -6 -21 -7 -30 -4 -14 5 -14 4 -2 -11 12 -16 12 -17 -5 -11 -15 4 -13
1 6 -16 21 -18 21 -20 4 -11 -17 8 -25 6 -42 -12 -23 -24 -25 -34 -11 -59 6
-11 5 -19 -3 -24 -7 -4 -8 -3 -4 4 4 7 2 12 -3 12 -17 0 -13 -21 6 -35 13 -9
13 -14 3 -20 -9 -6 -11 -4 -5 5 5 8 3 11 -5 8 -7 -2 -15 -14 -17 -27 -2 -13 1
-20 7 -16 5 3 10 1 10 -4 0 -6 -8 -11 -17 -11 -15 0 -16 -2 -3 -10 9 -6 10
-10 3 -10 -8 0 -11 -22 -10 -68 0 -37 -2 -73 -6 -79 -4 -6 -3 -14 2 -17 5 -3
7 -15 4 -26 -4 -13 1 -26 13 -35 17 -13 17 -14 2 -9 -13 4 -18 1 -18 -11 0
-10 4 -13 12 -9 10 6 10 4 0 -8 -9 -11 -10 -23 -2 -42 7 -20 7 -25 -1 -20 -7
4 -10 1 -7 -7 3 -8 11 -13 18 -11 11 3 11 0 1 -12 -8 -9 -11 -30 -7 -53 3 -21
5 -40 6 -42 0 -2 8 0 17 3 16 5 16 5 2 -7 -11 -8 -15 -22 -11 -45 2 -17 7 -32
11 -32 4 0 8 -14 9 -32 2 -18 6 -35 10 -38 4 -3 7 -11 8 -17 3 -39 5 -44 14
-38 6 3 10 1 10 -4 0 -6 -6 -11 -12 -11 -9 0 -8 -3 2 -10 9 -6 17 -5 22 3 6 9
8 9 8 -1 0 -7 5 -10 12 -6 7 4 8 3 4 -5 -4 -6 -11 -9 -16 -6 -13 8 -23 -14
-12 -28 5 -7 12 -24 15 -38 4 -14 14 -43 24 -65 9 -21 17 -47 17 -56 1 -9 4
-20 8 -23 4 -4 3 -15 -1 -24 -5 -9 -7 -28 -5 -44 2 -19 -1 -25 -9 -20 -7 4 -6
0 2 -10 7 -9 10 -17 5 -17 -5 0 -9 -19 -8 -43 0 -23 -2 -46 -5 -52 -9 -17 -8
-176 1 -182 5 -2 5 -10 0 -16 -13 -16 -12 -49 2 -66 8 -11 8 -13 -1 -7 -17 9
-17 -6 0 -23 10 -11 10 -13 0 -7 -7 4 -13 3 -13 -3 0 -5 6 -12 13 -14 9 -4 8
-6 -2 -6 -11 -1 -11 -4 0 -18 10 -11 10 -14 2 -9 -7 4 -13 3 -13 -3 0 -5 6
-12 13 -14 8 -4 8 -6 -2 -6 -11 -1 -10 -5 5 -16 19 -15 19 -15 -1 -8 -18 6
-18 5 -6 -10 7 -9 9 -17 3 -17 -5 0 -9 -11 -8 -25 0 -14 6 -25 11 -25 6 0 3
-5 -5 -10 -10 -6 -11 -10 -3 -10 15 0 13 -21 -2 -32 -6 -5 -6 -8 1 -8 7 0 15
-7 18 -16 3 -8 2 -12 -4 -9 -6 3 -10 -1 -10 -10 0 -10 5 -13 12 -9 7 5 8 3 2
-7 -14 -23 -14 -42 0 -30 9 8 12 6 11 -9 -1 -11 -4 -23 -8 -26 -12 -12 -8 -54
6 -54 8 0 7 -4 -3 -10 -12 -8 -10 -10 10 -11 17 0 20 -2 10 -7 -13 -6 -20 -44
-10 -54 1 -2 3 -15 4 -30 0 -14 4 -30 8 -34 4 -4 3 -13 -3 -21 -8 -8 -8 -13
-1 -13 6 0 9 -11 7 -25 -1 -14 2 -28 8 -32 6 -4 7 -1 2 7 -5 9 -4 11 4 6 8 -5
9 -12 2 -19 -14 -18 -14 -29 1 -38 10 -7 10 -9 -2 -9 -10 0 -11 -3 -3 -8 6 -4
12 -25 14 -47 1 -22 5 -44 8 -50 3 -5 6 -14 7 -20 1 -5 5 -23 9 -40 12 -60 16
-80 17 -102 1 -13 5 -23 8 -23 3 0 7 -12 8 -26 1 -15 7 -33 13 -40 9 -11 8
-14 -1 -14 -9 0 -8 -6 4 -19 12 -13 14 -20 5 -23 -8 -3 -7 -9 5 -20 12 -12 13
-18 3 -21 -9 -4 -9 -6 1 -6 7 -1 12 -14 12 -31 0 -16 5 -30 11 -30 8 0 8 -5
-1 -15 -9 -10 -9 -15 -1 -15 6 0 11 -12 11 -26 0 -17 4 -23 13 -18 8 5 8 2 -2
-9 -9 -12 -10 -17 -2 -17 7 0 10 -4 7 -9 -9 -14 5 -42 16 -35 6 4 5 -3 -1 -15
-8 -15 -8 -21 -1 -21 6 0 10 -6 9 -12 -3 -25 1 -39 9 -34 5 3 9 -1 9 -9 0 -8
-5 -11 -11 -8 -6 4 -4 -1 4 -12 8 -10 14 -26 12 -37 -2 -10 2 -18 8 -18 6 0
10 -6 9 -12 -3 -26 1 -49 9 -45 4 3 8 -5 9 -16 5 -48 10 -61 29 -68 18 -7 18
-8 -1 -9 -20 -1 -20 -1 -1 -15 14 -11 16 -15 5 -15 -8 0 -10 -3 -4 -8 6 -4 12
-16 13 -27 2 -11 9 -23 15 -27 9 -6 8 -8 -1 -8 -10 0 -10 -4 2 -15 8 -9 13
-22 10 -30 -4 -9 0 -15 7 -15 11 0 11 -3 -1 -10 -12 -8 -12 -10 5 -11 12 0 15
-3 7 -6 -10 -4 -9 -9 5 -20 10 -8 12 -12 6 -8 -8 4 -13 0 -13 -10 0 -12 6 -15
23 -11 12 3 16 3 10 0 -7 -3 -13 -15 -13 -25 0 -11 4 -18 9 -14 6 3 8 -6 5
-20 -3 -17 1 -27 11 -31 10 -4 13 -13 10 -25 -5 -13 -2 -17 8 -14 8 4 14 0 14
-9 0 -8 -4 -13 -9 -10 -4 3 -5 -2 -2 -10 3 -9 9 -14 13 -13 3 2 15 -5 25 -16
16 -17 17 -19 3 -14 -15 6 -16 3 -7 -14 6 -11 15 -17 20 -14 6 4 7 -1 3 -11
-5 -13 -3 -15 7 -9 9 5 11 4 6 -4 -4 -6 -1 -25 8 -41 9 -19 10 -28 3 -23 -7 4
-5 -2 3 -13 21 -26 32 -34 44 -27 5 3 6 1 2 -6 -4 -6 -12 -9 -17 -6 -5 4 -5
-3 0 -18 6 -14 7 -28 3 -32 -3 -3 1 -3 10 0 9 4 19 1 24 -6 4 -8 3 -10 -4 -5
-7 4 -12 1 -12 -8 0 -9 4 -16 8 -16 5 0 15 -22 22 -50 7 -27 17 -50 22 -50 4
0 8 -7 8 -16 0 -9 5 -12 13 -8 7 5 6 0 -3 -11 -9 -11 -10 -16 -2 -11 8 5 12 0
12 -13 0 -12 5 -21 10 -21 6 0 10 -9 10 -20 0 -11 4 -20 8 -20 4 0 8 -9 9 -20
1 -11 12 -34 24 -52 13 -17 16 -28 8 -23 -11 7 -11 5 2 -11 19 -24 72 -135 72
-151 0 -7 3 -10 7 -8 4 2 17 -18 31 -45 13 -27 28 -50 32 -50 5 0 6 -4 2 -9
-3 -5 4 -16 15 -24 11 -7 17 -16 14 -20 -6 -5 24 -57 39 -68 5 -3 8 -10 8 -15
-2 -21 11 -44 25 -44 9 0 12 -5 8 -11 -3 -6 0 -15 7 -20 8 -4 14 -12 14 -16 0
-4 9 -21 21 -38 11 -16 24 -38 27 -48 4 -9 11 -17 17 -17 5 0 10 -6 10 -14 0
-8 10 -22 22 -30 12 -9 18 -16 13 -16 -5 0 1 -9 13 -21 12 -11 20 -24 17 -29
-3 -4 2 -11 11 -14 8 -3 12 -11 8 -18 -5 -8 0 -9 16 -5 16 4 20 3 12 -5 -8 -8
-2 -22 21 -52 18 -22 35 -43 40 -44 4 -2 5 -8 1 -13 -3 -5 1 -9 9 -9 7 0 19
-11 25 -25 7 -14 19 -28 28 -32 8 -3 20 -16 25 -29 4 -13 16 -24 26 -24 15 0
16 -2 3 -10 -12 -8 -11 -10 7 -10 16 0 21 -4 17 -15 -4 -10 0 -15 12 -15 16 0
17 -2 4 -10 -13 -8 -12 -10 3 -10 10 0 21 -8 24 -17 9 -23 114 -129 124 -126
9 3 13 -12 10 -31 -1 -5 7 -6 18 -3 14 3 18 1 14 -9 -3 -8 0 -14 6 -14 6 0 11
-6 11 -14 0 -9 7 -13 20 -11 11 2 19 -1 17 -8 -3 -18 16293 -22 16305 -5 4 7
6 18 3 25 -2 8 2 10 12 6 11 -4 14 -3 9 6 -4 6 -2 18 4 26 6 8 9 19 5 25 -4 6
-1 9 7 8 7 -2 12 3 11 10 -2 6 2 12 8 12 6 0 8 7 5 16 -3 8 -2 12 4 9 6 -3 10
3 10 14 0 12 4 21 9 21 5 0 11 8 13 18 8 31 11 37 25 50 7 8 11 17 8 22 -3 4
2 11 11 14 8 3 12 10 9 16 -3 6 1 18 10 27 11 10 14 25 10 42 -4 20 -3 22 5
11 9 -13 14 -7 11 13 0 4 4 7 10 7 5 0 8 4 4 9 -3 5 -1 12 5 16 5 3 10 11 10
16 0 6 -5 7 -12 3 -7 -5 -8 -3 -4 5 5 7 11 10 14 6 8 -8 43 65 36 76 -3 5 -1
9 3 9 13 0 83 148 86 181 1 11 6 19 11 19 5 0 7 3 3 6 -3 3 2 14 11 24 15 16
102 235 94 235 -2 0 4 17 13 37 8 21 12 38 9 38 -4 0 0 8 8 18 9 9 14 25 13
35 -2 9 1 17 7 17 6 0 8 7 4 15 -3 8 -1 15 5 15 6 0 7 5 4 10 -3 6 -1 10 5 10
7 0 10 7 6 15 -3 8 -1 15 5 15 6 0 7 5 4 10 -3 6 -1 10 6 10 7 0 4 7 -7 15
-16 13 -16 14 -1 9 16 -6 21 4 20 43 -1 7 4 10 10 6 6 -4 8 0 4 10 -3 10 -2
17 2 17 5 0 8 11 7 25 -2 13 0 22 4 20 9 -5 31 65 24 77 -3 4 -1 8 4 8 6 0 13
7 16 16 4 10 2 13 -7 8 -9 -6 -9 -5 0 7 7 9 14 25 16 37 2 12 6 25 10 28 4 4
7 18 7 30 0 13 5 26 10 29 8 5 7 11 -1 21 -10 12 -10 15 1 12 10 -2 14 6 14
25 -1 15 3 27 9 27 6 0 8 3 4 6 -3 4 0 22 8 41 8 18 10 31 4 27 -11 -6 -8 1
20 55 10 19 10 22 -1 15 -10 -6 -11 -5 -1 7 7 9 13 30 15 47 1 18 6 32 11 32
5 0 7 9 4 20 -3 11 -2 20 2 20 4 0 7 8 8 18 3 45 8 62 18 62 5 0 3 5 -5 10
-11 7 -11 10 -2 10 7 0 10 5 7 10 -3 6 -3 16 2 23 8 14 11 28 15 75 1 18 6 36
11 39 5 3 3 9 -4 14 -11 7 -11 9 -1 9 7 0 10 4 7 10 -3 5 -1 10 4 10 6 0 11 5
11 11 0 5 -6 7 -12 3 -10 -6 -10 -5 -1 7 7 8 14 33 17 54 2 22 6 42 7 45 1 3
3 10 4 15 2 6 4 12 5 15 1 3 3 16 6 29 4 21 3 22 -13 10 -15 -11 -15 -10 1 9
11 13 20 40 21 68 2 26 9 50 16 55 13 8 6 13 -13 10 -4 0 -5 6 -2 14 4 8 10
12 15 9 5 -3 9 2 9 10 0 8 -6 14 -12 12 -7 -1 -10 -1 -5 1 4 3 5 9 2 14 -4 5
0 7 7 4 10 -4 13 11 13 64 0 38 3 67 8 64 4 -2 7 -1 8 4 0 4 2 22 4 38 4 39
14 99 27 155 16 75 17 80 28 184 6 56 12 163 13 238 2 76 5 140 8 143 3 2 5
-23 4 -56 -1 -33 3 -63 8 -66 6 -3 7 -1 3 5 -3 6 -2 14 4 17 7 4 8 11 1 18 -5
7 -9 17 -9 22 0 6 4 15 9 22 6 6 6 14 1 17 -10 6 -10 66 1 83 4 6 2 17 -5 25
-16 16 -22 42 -9 34 5 -4 12 -2 16 4 3 5 -1 10 -9 10 -9 0 -16 5 -16 11 0 5 5
7 11 3 8 -4 8 -1 1 13 -6 10 -7 25 -3 32 5 7 6 22 3 34 -4 15 -2 18 8 12 10
-6 11 -4 4 6 -13 22 -14 43 -1 51 9 6 9 8 0 8 -12 0 -12 17 0 36 3 6 3 14 0
18 -12 12 -12 36 0 36 8 0 8 3 2 8 -13 9 -16 42 -3 42 5 0 6 5 2 11 -11 18
-12 79 -1 79 5 0 4 7 -3 15 -7 8 -9 15 -4 15 11 0 11 140 1 157 -4 6 -3 14 3
18 6 4 7 13 1 23 -6 11 -6 24 0 35 6 9 6 17 1 17 -5 0 -9 7 -9 15 0 8 5 15 10
15 5 0 4 7 -3 15 -10 12 -10 15 0 15 10 0 10 3 0 15 -10 12 -10 15 0 15 10 0
10 3 0 15 -9 11 -9 15 -1 15 7 0 9 5 6 10 -4 6 -12 8 -18 4 -7 -3 -3 2 7 10
11 9 14 16 8 16 -7 0 -12 5 -12 11 0 5 6 7 13 3 6 -4 4 2 -6 13 -14 16 -15 23
-6 29 8 5 10 3 4 -6 -5 -9 -4 -11 4 -6 9 6 9 11 -1 23 -19 23 -19 43 0 35 15
-5 15 -4 3 11 -7 9 -10 17 -7 17 4 0 2 10 -5 21 -6 12 -7 19 -2 16 6 -4 8 30
6 81 -4 119 -10 215 -13 227 -1 6 -1 12 0 15 8 20 5 48 -4 43 -6 -4 -5 1 3 10
12 15 11 17 -3 17 -10 0 -14 5 -11 10 4 6 11 7 17 4 7 -5 8 -2 2 7 -4 8 -7 25
-5 38 1 13 -1 21 -6 18 -5 -3 -9 3 -9 13 0 10 4 16 9 13 4 -2 5 8 1 23 -4 16
-8 54 -8 86 0 32 -4 58 -8 58 -11 0 -6 23 7 32 6 5 6 8 -1 8 -7 0 -9 11 -6 26
4 20 2 25 -8 19 -9 -6 -10 -3 -1 13 6 12 7 23 2 26 -4 3 -7 19 -5 36 3 21 0
29 -8 24 -7 -5 -8 -3 -2 7 13 21 14 39 1 39 -7 0 -5 5 3 10 8 5 10 10 4 10 -5
0 -10 15 -9 33 0 17 -4 35 -10 39 -6 5 -5 8 4 8 11 0 10 5 -3 24 -11 17 -12
27 -5 32 8 4 7 9 -2 15 -11 7 -11 9 -1 9 7 0 10 5 7 10 -4 6 -12 7 -18 3 -7
-4 -5 1 3 12 17 21 17 24 -2 36 -10 7 -10 9 0 9 9 0 10 5 4 18 -5 9 -9 31 -8
47 1 17 -4 46 -11 67 -6 20 -9 39 -6 42 4 3 0 6 -8 6 -11 0 -11 2 1 10 11 7
11 10 2 10 -7 0 -12 6 -11 13 3 25 -1 38 -12 32 -6 -4 -5 3 3 14 9 16 10 24 2
29 -6 4 -10 15 -8 24 1 10 -3 18 -9 18 -7 0 -5 5 3 10 9 6 10 10 3 10 -6 0
-10 9 -8 20 2 11 -1 20 -6 20 -6 0 -7 5 -4 10 3 6 0 10 -7 10 -9 0 -9 3 2 10
8 5 10 10 3 10 -6 0 -9 9 -6 20 3 12 0 20 -7 20 -6 0 -10 6 -7 13 2 6 -3 18
-12 25 -14 11 -14 11 3 5 15 -5 17 -3 10 8 -5 8 -9 21 -9 29 0 8 -5 22 -10 30
-5 8 -10 24 -10 35 -1 11 -6 30 -13 41 -6 12 -8 24 -5 28 3 3 1 6 -5 6 -7 0
-12 5 -12 11 0 5 5 7 10 4 16 -10 11 1 -7 16 -14 12 -16 12 -8 0 5 -10 4 -12
-4 -7 -9 6 -9 11 0 23 10 12 10 16 0 23 -8 4 -10 13 -7 19 4 6 0 11 -11 11
-15 0 -16 2 -3 10 13 9 13 10 0 10 -13 0 -13 1 0 10 13 9 8 14 -11 12 -4 -1
-5 8 -2 18 3 11 1 20 -3 20 -5 0 -15 10 -23 22 -13 21 -13 22 2 9 10 -8 17 -9
17 -3 0 6 -5 14 -10 17 -6 4 -7 11 -4 17 5 7 2 8 -6 3 -10 -6 -12 -3 -8 13 5
16 2 22 -10 22 -15 0 -15 2 -2 10 13 8 8 14 -11 12 -3 -1 -4 9 -2 22 3 13 0
27 -6 30 -6 4 -11 2 -11 -4 0 -6 -5 -8 -11 -5 -6 5 -4 12 8 20 17 13 17 14 1
20 -10 4 -15 11 -12 16 3 6 -2 21 -11 36 -10 15 -12 22 -4 17 7 -4 2 8 -11 26
-13 19 -18 30 -9 26 7 -4 4 1 -9 12 -15 14 -18 22 -10 25 10 4 10 6 1 6 -7 1
-10 8 -7 16 4 8 -1 17 -10 21 -9 3 -13 10 -10 15 2 5 -1 19 -8 31 -7 13 -13
25 -14 28 -7 27 -27 70 -33 70 -4 0 -7 10 -8 22 -1 11 -8 25 -15 29 -7 5 -9 9
-4 9 5 0 3 6 -3 13 -6 8 -7 18 -3 22 4 5 -1 5 -11 2 -10 -4 -16 -3 -13 2 8 12
-14 71 -25 71 -5 0 -9 9 -9 20 0 11 -4 20 -10 20 -5 0 -10 10 -10 22 0 12 -3
18 -7 15 -7 -7 -33 38 -33 58 0 7 -7 16 -16 19 -8 3 -13 10 -9 16 3 5 -2 17
-12 27 -10 10 -24 31 -32 45 -8 15 -18 25 -23 22 -8 -5 -10 1 -12 36 -1 8 -12
20 -26 27 -14 7 -19 13 -12 13 7 0 10 5 7 10 -4 6 -11 7 -17 4 -6 -4 -8 -2 -5
3 4 6 0 16 -8 23 -8 7 -15 19 -15 27 0 8 -5 11 -10 8 -5 -3 -10 3 -10 14 0 11
-9 25 -20 31 -11 6 -20 17 -20 25 0 8 -4 15 -8 15 -5 0 -17 18 -27 40 -10 22
-38 58 -62 80 -23 22 -44 43 -45 46 -2 3 -45 48 -95 101 -51 52 -93 99 -93
104 0 5 -7 9 -15 9 -8 0 -15 7 -15 16 0 8 -4 12 -10 9 -5 -3 -10 1 -10 10 0 9
-4 14 -8 11 -5 -3 -15 6 -22 19 -7 14 -18 25 -24 25 -5 0 -27 19 -48 42 -21
23 -38 39 -38 35 0 -4 -6 -2 -14 5 -8 7 -12 16 -9 21 2 4 -3 7 -11 7 -9 0 -21
9 -28 20 -7 11 -19 20 -26 20 -7 0 -18 11 -24 25 -9 19 -14 22 -25 14 -11 -9
-12 -8 -7 5 5 12 0 16 -17 16 -19 0 -21 2 -9 10 12 8 11 10 -7 10 -13 0 -24 8
-28 20 -4 11 -11 18 -16 14 -5 -3 -6 -11 -3 -17 4 -7 3 -8 -1 -4 -5 4 -10 15
-11 25 -2 9 -8 18 -14 20 -6 2 -17 10 -25 19 -8 8 -19 12 -24 8 -5 -3 -12 4
-16 15 -4 11 -10 18 -15 15 -4 -3 -11 2 -14 11 -4 9 -13 14 -22 10 -8 -3 -13
-2 -10 2 2 4 -2 16 -10 27 -8 10 -14 16 -14 12 0 -6 -65 40 -118 84 -7 5 -17
7 -24 3 -6 -4 -8 -3 -4 4 3 6 -3 13 -14 17 -11 3 -20 13 -20 22 0 13 -2 14
-17 2 -11 -10 -14 -10 -9 -1 4 7 1 12 -9 12 -9 0 -14 4 -11 9 3 4 -6 13 -19
19 -14 7 -25 16 -25 22 0 5 -9 10 -21 10 -13 0 -18 4 -13 12 5 7 2 9 -9 5 -11
-4 -14 -2 -10 9 3 8 1 14 -5 12 -6 -2 -18 6 -27 17 -9 11 -13 13 -9 5 4 -8 -6
-3 -23 13 -16 15 -33 27 -37 27 -5 0 -17 10 -27 22 -11 11 -19 18 -19 15 0 -6
-34 20 -66 51 -7 6 -19 12 -28 12 -8 0 -18 5 -22 12 -5 7 -2 9 7 4 8 -4 5 -1
-5 8 -10 8 -23 13 -27 10 -5 -3 -9 2 -9 10 0 9 -4 16 -9 16 -4 0 -22 14 -39
30 -18 16 -34 30 -37 30 -3 0 -19 14 -35 30 -17 17 -35 28 -40 25 -6 -4 -7 1
-3 11 4 12 3 15 -5 10 -13 -8 -28 37 -17 53 3 6 3 11 -2 11 -10 0 -10 121 1
138 4 7 3 12 -2 12 -6 0 -7 14 -3 33 7 36 5 372 -4 457 -6 66 -18 721 -18
1055 -1 218 8 438 19 490 3 11 7 43 9 70 5 56 13 130 20 190 3 22 7 54 10 72
2 18 6 37 10 43 3 5 1 10 -5 10 -8 0 -8 6 0 20 6 11 8 25 5 30 -3 5 -1 11 5
15 6 4 8 9 6 13 -2 4 0 27 5 52 5 25 11 61 13 80 3 19 9 55 15 80 5 25 12 60
16 78 3 18 12 63 19 100 8 37 17 87 21 112 3 25 9 59 12 75 2 17 6 44 8 60 2
17 6 55 9 85 15 127 14 186 -4 297 -10 64 -17 120 -14 125 3 4 0 8 -5 8 -6 0
-11 9 -11 20 0 23 -22 113 -30 120 -3 3 -6 15 -7 28 -2 12 -4 32 -5 45 -2 12
-7 25 -11 28 -4 3 -10 19 -13 35 -7 37 -10 45 -17 64 -3 8 -15 47 -27 85 -12
39 -37 103 -55 143 -19 40 -34 76 -35 80 -1 4 -7 14 -14 22 -6 8 -21 33 -33
55 -11 22 -35 66 -53 98 -17 32 -29 61 -27 64 3 2 -3 13 -14 24 -10 10 -19 26
-19 34 0 8 -5 15 -10 15 -6 0 -9 3 -8 8 2 10 -75 166 -84 170 -5 2 -8 9 -8 15
0 7 -56 125 -124 262 -105 212 -122 251 -108 257 100 39 309 120 317 121 6 2
15 6 21 9 19 12 129 52 137 50 4 -1 7 3 7 10 0 6 3 9 6 5 3 -3 23 3 42 14 20
10 40 19 44 19 4 0 46 18 93 40 47 22 88 40 90 40 12 0 616 295 670 327 17 10
32 21 33 26 2 4 8 7 13 7 6 0 51 27 101 60 49 33 92 60 94 60 2 0 36 22 76 48
40 27 100 66 133 87 33 21 79 51 103 67 24 15 47 28 52 28 5 0 15 6 22 13 20
18 76 57 83 57 8 0 193 127 242 166 23 19 43 34 46 34 15 0 254 230 292 281
50 67 149 194 155 199 28 21 73 126 105 245 9 33 18 69 21 80 3 11 7 29 8 40
1 11 6 30 10 42 4 12 9 30 11 40 2 10 9 41 15 68 6 28 13 57 15 65 1 8 6 33
10 55 4 22 9 49 11 60 3 19 32 137 40 163 2 7 4 16 5 20 1 4 5 17 10 30 5 12
11 33 13 45 3 12 10 36 16 52 6 17 30 91 55 166 24 75 65 187 90 250 26 63 48
119 49 124 4 13 15 44 26 70 5 11 21 56 35 100 60 184 64 246 18 310 -72 102
-232 91 -411 -28 -37 -25 -77 -54 -88 -64 -12 -10 -36 -29 -54 -43 -36 -27
-180 -168 -180 -175 0 -3 -71 -76 -157 -163 -141 -141 -345 -311 -365 -304 -5
1 -8 -2 -8 -8 0 -5 -7 -10 -15 -10 -8 0 -15 -4 -15 -8 0 -7 -219 -123 -240
-128 -3 0 -27 -10 -53 -22 -27 -12 -52 -22 -57 -22 -4 0 -64 -23 -133 -50
-103 -42 -292 -97 -395 -116 -12 -3 -98 -23 -190 -45 -213 -52 -203 -49 -232
-55 -14 -3 -54 -12 -89 -20 -36 -8 -79 -17 -95 -19 -17 -2 -42 -7 -56 -10 -14
-3 -41 -8 -60 -11 -29 -5 -96 -17 -260 -48 -14 -3 -50 -10 -80 -16 -30 -6 -70
-13 -89 -16 -18 -3 -43 -8 -55 -10 -11 -3 -37 -7 -56 -10 -19 -2 -46 -7 -60
-9 -14 -3 -43 -8 -65 -10 -22 -3 -47 -7 -55 -10 -8 -2 -43 -7 -77 -10 -34 -3
-70 -7 -80 -9 -10 -2 -50 -7 -88 -11 -39 -4 -83 -9 -100 -11 -16 -2 -52 -6
-80 -9 -27 -3 -66 -7 -85 -9 -48 -7 -130 -17 -160 -20 -14 -1 -32 -6 -40 -11
-10 -6 -12 -4 -5 11 12 26 10 147 -3 214 -15 71 -21 104 -31 165 -35 194 -86
293 -172 332 -45 20 -114 25 -170 14 -30 -6 -95 -13 -145 -17 l-92 -6 -3 45
c-2 25 -4 116 -4 201 0 86 -4 156 -9 156 -5 0 -4 6 1 13 5 7 8 151 7 342 -1
307 -5 399 -19 580 -3 39 -7 93 -10 120 -2 28 -6 64 -8 80 -3 17 -8 62 -12
100 -4 39 -9 84 -11 100 -2 17 -7 57 -9 90 -3 33 -8 78 -10 100 -3 22 -7 63
-10 90 -3 28 -7 70 -10 95 -3 25 -7 68 -10 95 -2 28 -7 69 -9 93 -3 24 -8 82
-12 129 -3 47 -8 95 -10 107 -2 11 -6 53 -10 94 -3 41 -7 81 -9 90 -3 21 -14
103 -19 162 -5 49 -14 132 -21 195 -3 22 -7 67 -9 100 -3 33 -7 79 -10 102 -3
23 -8 74 -11 115 -17 213 -39 344 -91 553 -37 148 -157 485 -220 615 -101 208
-181 284 -334 316 -14 3 -32 8 -40 11 -8 3 -24 8 -35 9 -11 2 -36 7 -55 10
-51 10 -60 12 -110 20 -25 4 -52 9 -60 11 -8 2 -31 5 -50 7 -19 2 -35 8 -35
14 0 6 -4 14 -9 19 -5 4 -6 3 -3 -3 8 -13 -11 -23 -31 -17 -6 3 -9 10 -5 16 4
7 0 7 -9 -1 -13 -10 -22 -11 -37 -3 -13 7 -22 8 -26 1 -4 -6 -19 -5 -41 5 -18
7 -34 10 -34 5 0 -5 -6 -8 -12 -5 -25 8 -313 30 -523 40 -44 2 -127 6 -185 9
-58 3 -145 8 -195 11 -137 7 -241 14 -335 21 -47 3 -112 8 -145 10 -66 5 -785
11 -788 7z m6121 -13928 c-3 -3 -9 2 -12 12 -6 14 -5 15 5 6 7 -7 10 -15 7
-18z m542 -395 c0 -5 -5 -10 -11 -10 -5 0 -7 5 -4 10 3 6 8 10 11 10 2 0 4 -4
4 -10z m1456 -2220 c0 -12 -4 -16 -9 -11 -5 5 -6 14 -3 20 10 15 12 14 12 -9z
m34 -54 c0 -2 -7 -9 -15 -16 -13 -11 -14 -10 -9 4 5 14 24 23 24 12z m-18550
-326 c0 -5 -2 -10 -4 -10 -3 0 -8 5 -11 10 -3 6 -1 10 4 10 6 0 11 -4 11 -10z
m237 3 c-4 -3 0 -15 10 -25 20 -22 11 -24 -11 -2 -15 14 -14 34 1 34 4 0 3 -3
0 -7z m53 -3 c-8 -5 -19 -10 -25 -10 -5 0 -3 5 5 10 8 5 20 10 25 10 6 0 3 -5
-5 -10z m-175 -20 c-3 -4 1 -11 7 -13 8 -4 7 -6 -4 -6 -11 -1 -16 6 -15 18 0
11 5 17 9 15 5 -3 6 -9 3 -14z m-127 -15 c-3 -3 -9 2 -12 12 -6 14 -5 15 5 6
7 -7 10 -15 7 -18z m65 10 c-3 -9 -8 -14 -10 -11 -3 3 -2 9 2 15 9 16 15 13 8
-4z m107 5 c0 -5 -5 -10 -11 -10 -5 0 -7 5 -4 10 3 6 8 10 11 10 2 0 4 -4 4
-10z m-86 -50 c-5 -5 -10 3 -11 18 -1 22 0 24 9 8 6 -10 6 -22 2 -26z m123 34
c-3 -3 -12 -4 -19 -1 -8 3 -5 6 6 6 11 1 17 -2 13 -5z m-37 -28 c-7 -7 -13 -7
-20 0 -6 6 -3 10 10 10 13 0 16 -4 10 -10z m71 -3 c12 -16 12 -17 -2 -6 -9 7
-19 10 -22 6 -4 -3 -7 -1 -7 5 0 17 16 15 31 -5z m53 9 c2 -4 -4 -8 -14 -8
-10 0 -16 4 -14 8 3 4 9 8 14 8 5 0 11 -4 14 -8z m-287 -17 c0 -8 -4 -12 -9
-9 -5 3 -6 10 -3 15 9 13 12 11 12 -6z m50 -27 c-3 -8 -6 -5 -6 6 -1 11 2 17
5 13 3 -3 4 -12 1 -19z m83 7 c0 -2 -6 -5 -13 -8 -8 -3 -14 1 -14 8 0 7 6 11
14 8 7 -3 13 -6 13 -8z m64 0 c-4 -8 -10 -12 -15 -9 -5 3 -9 0 -9 -7 0 -7 -3
-9 -7 -5 -5 4 1 14 11 22 25 18 27 18 20 -1z m64 4 c-2 -6 -7 -10 -12 -9 -5 1
-13 -4 -18 -12 -8 -10 -9 -10 -5 2 2 8 10 14 16 13 6 -2 11 2 11 7 0 6 3 10 6
10 3 0 4 -5 2 -11z m-330 -24 c-3 -3 -9 2 -12 12 -6 14 -5 15 5 6 7 -7 10 -15
7 -18z m58 14 c3 -6 2 -15 -4 -21 -6 -6 -12 -6 -17 3 -5 8 -4 10 3 5 7 -4 12
-3 12 3 0 5 -6 12 -12 14 -10 4 -10 6 -1 6 6 1 15 -4 19 -10z m-32 -25 c3 -8
2 -12 -4 -9 -6 3 -10 10 -10 16 0 14 7 11 14 -7z m140 -23 c-5 -6 -34 20 -34
30 0 5 8 1 18 -8 10 -10 17 -20 16 -22z m-53 6 c-10 -9 -11 -8 -5 6 3 10 9 15
12 12 3 -3 0 -11 -7 -18z m117 -2 c-3 -3 -9 2 -12 12 -6 14 -5 15 5 6 7 -7 10
-15 7 -18z m-224 7 c3 -5 -1 -9 -9 -9 -8 0 -12 4 -9 9 3 4 7 8 9 8 2 0 6 -4 9
-8z m189 -7 c-3 -9 -8 -14 -10 -11 -3 3 -2 9 2 15 9 16 15 13 8 -4z m117 1
c-7 -7 -13 -7 -20 0 -6 6 -3 10 10 10 13 0 16 -4 10 -10z m-225 -5 c3 -5 0
-13 -6 -17 -8 -5 -9 -3 -4 6 6 10 4 12 -9 7 -10 -4 -15 -3 -11 3 8 13 22 13
30 1z m65 -16 c0 -2 -10 -9 -22 -15 -22 -11 -22 -10 -4 4 21 17 26 19 26 11z
m82 -2 c-6 -2 -10 -9 -7 -13 3 -5 1 -11 -4 -14 -7 -5 -8 11 -2 32 1 1 7 2 14
1 9 0 9 -2 -1 -6z m-262 -15 c0 -6 -3 -8 -7 -5 -3 4 -13 1 -22 -6 -14 -11 -14
-10 -2 6 15 20 31 22 31 5z m45 2 c-3 -5 -12 -10 -18 -10 -7 0 -6 4 3 10 19
12 23 12 15 0z m41 -1 c3 -6 2 -15 -4 -21 -6 -6 -12 -6 -17 3 -5 8 -4 10 3 5
7 -4 12 -3 12 3 0 5 -6 12 -12 14 -10 4 -10 6 -1 6 6 1 15 -4 19 -10z m144
-14 c0 -1 -9 -5 -19 -8 -13 -3 -18 -1 -14 9 4 10 33 10 33 -1z m-36 -34 c-5
-6 -34 20 -34 30 0 5 8 1 18 -8 10 -10 17 -20 16 -22z m109 24 c-10 -8 -20 -9
-21 -4 -2 5 -9 6 -14 3 -6 -4 -9 -3 -5 2 3 5 17 10 32 10 24 2 25 1 8 -11z
m-295 -15 c-7 -10 -14 -18 -15 -16 -6 6 9 36 18 36 5 0 4 -9 -3 -20z m133 -3
c-10 -9 -11 -8 -5 6 3 10 9 15 12 12 3 -3 0 -11 -7 -18z m-85 -2 c-1 -8 -6
-18 -11 -22 -4 -5 -5 -2 0 6 6 11 4 13 -11 8 -18 -7 -18 -7 0 8 24 18 25 18
22 0z m194 0 c19 -22 8 -25 -12 -3 -10 10 -14 18 -9 18 5 0 14 -7 21 -15z
m-135 -4 c3 -5 0 -13 -6 -17 -8 -5 -9 -3 -4 6 6 9 1 10 -16 5 -19 -5 -21 -4
-9 4 19 13 27 14 35 2z m-135 -11 c0 -5 -2 -10 -4 -10 -3 0 -8 5 -11 10 -3 6
-1 10 4 10 6 0 11 -4 11 -10z m174 -2 c-5 -7 -2 -9 9 -5 11 4 14 2 10 -9 -3
-7 -9 -14 -15 -14 -5 0 -6 -5 -2 -12 4 -6 3 -8 -3 -5 -5 3 -9 16 -7 29 3 28 3
28 10 28 3 0 2 -5 -2 -12z m81 -17 c1 -12 -3 -17 -12 -14 -16 6 -17 23 -2 23
5 0 7 6 3 13 -4 6 -3 9 1 4 5 -4 9 -16 10 -26z m-264 -8 c13 -17 13 -17 -6 -3
-11 8 -22 16 -24 17 -2 2 0 3 6 3 6 0 17 -8 24 -17z m49 5 c0 -4 -4 -8 -9 -8
-6 0 -12 4 -15 8 -3 5 1 9 9 9 8 0 15 -4 15 -9z m64 4 c3 -5 -1 -9 -9 -9 -8 0
-15 4 -15 9 0 4 4 8 9 8 6 0 12 -4 15 -8z m-141 -29 c-5 -12 -3 -14 7 -8 9 6
11 4 5 -4 -5 -9 -11 -9 -17 -3 -6 6 -7 15 -4 21 11 17 16 13 9 -6z m81 -17
c-3 -9 -10 -16 -15 -16 -5 0 -4 9 3 20 14 22 21 20 12 -4z m76 14 c8 -5 12
-11 10 -14 -3 -2 -14 2 -24 10 -22 15 -10 19 14 4z m49 -24 c-3 -3 -11 5 -18
17 -13 21 -12 21 5 5 10 -10 16 -20 13 -22z m-89 14 c0 -5 -2 -10 -4 -10 -3 0
-8 5 -11 10 -3 6 -1 10 4 10 6 0 11 -4 11 -10z m123 -8 c-10 -10 -20 -17 -22
-16 -6 5 20 34 30 34 5 0 1 -8 -8 -18z m25 -27 c-3 -3 -9 2 -12 12 -6 14 -5
15 5 6 7 -7 10 -15 7 -18z m-263 -6 c-5 -16 -4 -19 5 -14 9 6 11 4 5 -4 -10
-18 -27 2 -19 22 9 25 17 21 9 -4z m55 1 c0 -5 -4 -10 -10 -10 -5 0 -10 5 -10
10 0 6 5 10 10 10 6 0 10 -4 10 -10z m84 -2 c-3 -4 -9 -8 -15 -8 -5 0 -9 4 -9
8 0 5 7 9 15 9 8 0 12 -4 9 -9z m63 -10 c-3 -8 -6 -5 -6 6 -1 11 2 17 5 13 3
-3 4 -12 1 -19z m-111 -10 c5 -7 3 -8 -6 -3 -9 6 -10 2 -5 -16 7 -23 7 -23 -8
-4 -11 15 -12 22 -4 27 15 10 15 10 23 -4z m64 -8 c8 -5 12 -11 10 -14 -3 -2
-14 2 -24 10 -22 15 -10 19 14 4z m-100 -25 c0 -2 -5 -7 -12 -11 -7 -5 -8 -3
-3 6 5 9 1 11 -16 6 -13 -3 -18 -3 -11 0 6 3 9 10 6 16 -4 6 2 5 15 -1 11 -7
21 -14 21 -16z m-65 5 c4 -6 -1 -7 -11 -3 -13 5 -15 3 -9 -7 5 -9 4 -11 -4 -6
-6 4 -9 12 -6 17 8 12 22 12 30 -1z m118 -5 c-3 -9 -8 -14 -10 -11 -3 3 -2 9
2 15 9 16 15 13 8 -4z m35 -20 c-3 -3 -9 2 -12 12 -6 14 -5 15 5 6 7 -7 10
-15 7 -18z m52 15 c0 -5 -4 -10 -10 -10 -5 0 -10 5 -10 10 0 6 5 10 10 10 6 0
10 -4 10 -10z m-231 -24 c9 -11 9 -16 0 -22 -8 -4 -9 -3 -5 4 4 7 2 12 -3 12
-6 0 -11 5 -11 10 0 14 5 13 19 -4z m51 4 c0 -5 -2 -10 -4 -10 -3 0 -8 5 -11
10 -3 6 -1 10 4 10 6 0 11 -4 11 -10z m78 -15 c-3 -3 -9 2 -12 12 -6 14 -5 15
5 6 7 -7 10 -15 7 -18z m-46 1 c7 4 8 2 4 -5 -9 -13 -26 -5 -25 12 0 9 2 8 6
-1 2 -6 10 -9 15 -6z m126 -11 c-3 -3 -9 2 -12 12 -6 14 -5 15 5 6 7 -7 10
-15 7 -18z m-188 -10 c-7 -8 -16 -15 -21 -15 -5 0 -1 8 9 18 20 22 31 19 12
-3z m80 0 c-7 -8 -16 -15 -21 -15 -5 0 -1 8 9 18 20 22 31 19 12 -3z m90 0
c14 -19 14 -19 -2 -6 -10 7 -18 18 -18 24 0 6 1 8 3 6 1 -2 9 -13 17 -24z
m-38 -7 c-9 -9 -15 -9 -24 1 -11 10 -10 11 5 6 10 -5 17 -2 17 6 0 7 3 9 7 6
4 -4 1 -13 -5 -19z m-89 -12 c6 -15 -17 -16 -30 -1 -4 4 -2 5 5 1 6 -4 12 -2
12 3 0 15 7 14 13 -3z m-76 -21 c0 -20 -4 -19 -17 5 -8 15 -8 18 3 14 8 -3 14
-11 14 -19z m38 -5 c0 -7 -7 -15 -15 -17 -13 -4 -13 -3 0 6 13 10 13 12 0 22
-13 9 -13 10 0 6 8 -2 15 -10 15 -17z m100 10 c-3 -5 -12 -10 -18 -10 -7 0 -6
4 3 10 19 12 23 12 15 0z m55 -4 c0 -3 -4 -8 -10 -11 -5 -3 -10 -1 -10 4 0 6
5 11 10 11 6 0 10 -2 10 -4z m-70 -24 c0 -12 -22 -32 -34 -32 -6 0 -3 5 7 11
9 6 15 14 12 20 -4 5 -1 9 4 9 6 0 11 -4 11 -8z m-175 -20 c-3 -3 -11 0 -18 7
-9 10 -8 11 6 5 10 -3 15 -9 12 -12z m43 -4 c7 -7 12 -17 12 -22 0 -6 -5 -3
-11 7 -6 9 -14 15 -20 12 -5 -4 -9 -1 -9 4 0 14 13 14 28 -1z m42 6 c0 -8 -19
-13 -24 -6 -3 5 1 9 9 9 8 0 15 -2 15 -3z m140 0 c0 0 -9 -9 -20 -19 -20 -18
-21 -18 -14 0 6 14 4 16 -6 10 -8 -5 -11 -4 -7 1 4 7 47 15 47 8z m-252 -29
c-3 -3 -9 2 -12 12 -6 14 -5 15 5 6 7 -7 10 -15 7 -18z m46 -11 c3 -8 2 -12
-4 -9 -6 3 -10 10 -10 16 0 14 7 11 14 -7z m72 -4 c5 1 10 -4 12 -12 3 -11 2
-11 -6 0 -5 8 -13 13 -18 12 -5 -1 -10 4 -12 12 -3 11 -2 11 6 0 5 -8 13 -13
18 -12z m78 -10 c-6 -6 -10 -3 -10 10 0 13 4 16 10 10 7 -7 7 -13 0 -20z m-24
-5 c0 -2 -6 -5 -13 -8 -8 -3 -14 1 -14 8 0 7 6 11 14 8 7 -3 13 -6 13 -8z
m-116 -34 c-5 -6 -34 20 -34 30 0 5 8 1 18 -8 10 -10 17 -20 16 -22z m-51 8
c-8 -8 -13 -7 -18 2 -5 8 -4 10 3 5 7 -4 12 -2 12 5 0 7 3 9 7 6 4 -4 2 -12
-4 -18z m115 -4 c-3 -3 -9 2 -12 12 -6 14 -5 15 5 6 7 -7 10 -15 7 -18z m-35
0 c-3 -9 -8 -14 -10 -11 -3 3 -2 9 2 15 9 16 15 13 8 -4z m102 5 c3 -6 -1 -7
-9 -4 -18 7 -21 14 -7 14 6 0 13 -4 16 -10z m-15 -35 c-7 -8 -8 -20 -4 -26 4
-8 3 -9 -4 -5 -7 4 -12 1 -13 -6 0 -10 -2 -10 -6 0 -2 6 -10 9 -15 6 -7 -4 -8
-2 -4 5 4 6 12 8 18 5 7 -5 9 -1 5 9 -4 10 -2 16 6 14 7 -1 11 4 9 11 -1 8 2
11 8 7 8 -5 8 -11 0 -20z m-170 11 c0 -2 -8 -10 -17 -17 -16 -13 -17 -12 -4 4
13 16 21 21 21 13z m40 -1 c0 -2 -10 -9 -22 -15 -22 -11 -22 -10 -4 4 21 17
26 19 26 11z m82 -2 c-6 -2 -10 -9 -7 -13 3 -5 1 -11 -4 -14 -7 -5 -8 11 -2
32 1 1 7 2 14 1 9 0 9 -2 -1 -6z m-32 -28 c0 -1 -9 -5 -19 -8 -13 -3 -18 -1
-14 9 4 10 33 10 33 -1z m-36 -34 c-5 -6 -34 20 -34 30 0 5 8 1 18 -8 10 -10
17 -20 16 -22z m-53 19 c9 13 10 13 6 0 -2 -8 -10 -15 -17 -15 -7 0 -15 7 -17
15 -4 13 -3 13 6 0 10 -13 12 -13 22 0z m109 -15 c19 -22 8 -25 -12 -3 -10 10
-14 18 -9 18 5 0 14 -7 21 -15z m-147 -38 c-10 -12 -19 -24 -20 -26 -2 -2 -3
1 -3 7 0 6 7 17 15 25 8 8 11 18 7 22 -4 5 -1 5 6 1 11 -6 10 -12 -5 -29z m54
26 c-4 -3 1 -12 11 -20 9 -8 11 -12 5 -8 -7 3 -13 0 -14 -7 0 -7 -4 -4 -8 7
-8 20 -5 35 6 35 4 0 3 -3 0 -7z m79 -18 c3 -17 -12 -20 -21 -5 -3 6 -1 10 5
10 6 0 8 6 4 13 -4 6 -3 8 1 4 5 -4 10 -14 11 -22z m54 -5 c0 -5 -2 -10 -4
-10 -3 0 -8 5 -11 10 -3 6 -1 10 4 10 6 0 11 -4 11 -10z m-175 -20 c-3 -5 -2
-10 4 -10 5 0 12 6 14 13 4 9 6 9 6 0 1 -15 -16 -26 -29 -18 -10 6 -5 25 6 25
3 0 2 -4 -1 -10z m145 0 c0 -5 -5 -10 -11 -10 -5 0 -7 5 -4 10 3 6 8 10 11 10
2 0 4 -4 4 -10z m-40 -10 c-8 -5 -19 -10 -25 -10 -5 0 -3 5 5 10 8 5 20 10 25
10 6 0 3 -5 -5 -10z m-59 -32 c-10 -11 -11 -9 -5 6 6 15 4 17 -6 11 -9 -6 -11
-4 -5 4 5 9 10 10 18 2 8 -8 7 -14 -2 -23z m97 -3 c-3 -3 -9 2 -12 12 -6 14
-5 15 5 6 7 -7 10 -15 7 -18z m-37 -3 c-10 -18 -41 -25 -41 -10 0 6 7 7 16 4
11 -4 15 -2 11 7 -3 8 1 14 9 14 9 0 10 -5 5 -15z m-62 -17 c3 -3 -7 -4 -23
-1 -16 3 -31 8 -35 11 -3 3 7 4 23 1 16 -3 31 -8 35 -11z m98 -10 c0 -8 -4
-12 -9 -9 -5 3 -6 10 -3 15 9 13 12 11 12 -6z m-141 -7 c5 -7 3 -8 -6 -3 -9 5
-11 1 -6 -16 3 -13 3 -18 0 -11 -3 6 -10 9 -16 6 -6 -4 -5 2 1 15 13 24 17 25
27 9z m68 -14 c9 -24 2 -26 -12 -4 -7 11 -8 20 -3 20 5 0 12 -7 15 -16z m46
-4 c-8 -5 -19 -10 -25 -10 -5 0 -3 5 5 10 8 5 20 10 25 10 6 0 3 -5 -5 -10z
m-75 -10 c4 -6 -1 -7 -11 -3 -12 4 -15 3 -10 -5 4 -7 2 -12 -3 -12 -12 0 -14
13 -4 23 9 10 21 9 28 -3z m-52 -37 c-5 -12 -3 -14 7 -8 9 6 11 4 5 -4 -5 -9
-11 -9 -17 -3 -6 6 -7 15 -4 21 11 17 16 13 9 -6z m62 7 c-3 -5 -12 -10 -18
-10 -7 0 -6 4 3 10 19 12 23 12 15 0z m85 4 c0 -8 -19 -13 -24 -6 -3 5 1 9 9
9 8 0 15 -2 15 -3z m-32 -29 c-3 -3 -9 2 -12 12 -6 14 -5 15 5 6 7 -7 10 -15
7 -18z m-25 -11 c-5 -14 -9 -13 -43 14 -3 3 6 1 19 -3 18 -5 22 -4 16 5 -5 8
-4 11 3 6 6 -4 9 -13 5 -22z m-56 3 c0 -8 -6 -14 -14 -14 -9 0 -10 4 -2 14 6
7 12 13 14 13 1 0 2 -6 2 -13z m100 -22 c0 -8 -4 -12 -9 -9 -5 3 -6 10 -3 15
9 13 12 11 12 -6z m-68 -13 c7 -14 6 -19 -4 -19 -7 0 -11 7 -7 15 4 11 1 13
-8 7 -9 -5 -11 -4 -6 3 10 16 14 15 25 -6z m45 2 c3 -8 2 -12 -4 -9 -6 3 -10
10 -10 16 0 14 7 11 14 -7z m-93 -17 c-10 -9 -11 -8 -5 6 3 10 9 15 12 12 3
-3 0 -11 -7 -18z m-21 -17 c0 -5 -2 -10 -4 -10 -3 0 -8 5 -11 10 -3 6 -1 10 4
10 6 0 11 -4 11 -10z m95 0 c-3 -5 -2 -10 4 -10 5 0 12 6 14 13 4 9 6 9 6 0 1
-15 -16 -26 -29 -18 -10 6 -5 25 6 25 3 0 2 -4 -1 -10z m-33 -42 c-6 -6 -12
-6 -17 3 -6 8 -4 10 5 4 9 -5 10 -1 6 16 -6 21 -6 22 5 6 7 -13 8 -22 1 -29z
m-39 1 c-8 -8 -13 -7 -18 2 -5 8 -4 10 3 5 7 -4 12 -2 12 5 0 7 3 9 7 6 4 -4
2 -12 -4 -18z m17 -19 c0 -5 -5 -10 -11 -10 -5 0 -7 5 -4 10 3 6 8 10 11 10 2
0 4 -4 4 -10z m60 0 c0 -5 -4 -10 -10 -10 -5 0 -10 5 -10 10 0 6 5 10 10 10 6
0 10 -4 10 -10z m-97 -27 c-5 -12 -3 -14 7 -8 9 6 11 4 5 -4 -5 -9 -11 -9 -17
-3 -6 6 -7 15 -4 21 11 17 16 13 9 -6z m65 -13 c-7 -10 -14 -18 -15 -16 -6 6
9 36 18 36 5 0 4 -9 -3 -20z m52 5 c0 -2 -10 -9 -22 -15 -22 -11 -22 -10 -4 4
21 17 26 19 26 11z m-83 -20 c0 -8 -4 -15 -9 -15 -10 0 -11 14 -1 23 9 10 10
9 10 -8z m88 -5 c-3 -5 -12 -10 -18 -10 -7 0 -6 4 3 10 19 12 23 12 15 0z
m-50 -19 c-9 -8 -36 -10 -30 -2 2 4 11 8 20 8 8 0 13 -3 10 -6z m-35 -39 c0
-4 -10 -9 -22 -9 -18 -2 -20 0 -8 7 18 12 30 13 30 2z m40 -12 c-24 -15 -36
-11 -14 4 10 8 21 12 24 10 2 -3 -2 -9 -10 -14z m-5 -30 c3 -5 1 -10 -4 -10
-6 0 -11 5 -11 10 0 6 2 10 4 10 3 0 8 -4 11 -10z m50 0 c3 -6 -1 -7 -9 -4
-18 7 -21 14 -7 14 6 0 13 -4 16 -10z m-90 -10 c3 -6 -1 -7 -9 -4 -18 7 -21
14 -7 14 6 0 13 -4 16 -10z m80 -9 c3 -5 2 -12 -3 -15 -5 -3 -9 1 -9 9 0 17 3
19 12 6z m-41 -41 c-6 -5 -24 21 -24 34 0 6 6 1 14 -10 8 -10 12 -21 10 -24z
m10 -25 c-10 -8 -23 -15 -28 -15 -6 0 -1 7 10 15 10 8 23 15 28 15 6 0 1 -7
-10 -15z m28 -24 c-4 -10 -7 -11 -10 -3 -2 7 -9 9 -14 6 -6 -4 -8 -3 -5 3 10
16 36 11 29 -6z m-52 -11 c0 -5 -2 -10 -4 -10 -3 0 -8 5 -11 10 -3 6 -1 10 4
10 6 0 11 -4 11 -10z m85 0 c3 -6 -1 -7 -9 -4 -18 7 -21 14 -7 14 6 0 13 -4
16 -10z m-22 -25 c-3 -9 -8 -14 -10 -11 -3 3 -2 9 2 15 9 16 15 13 8 -4z m9
-67 c-8 -8 -9 -4 -5 13 4 13 8 18 11 10 2 -7 -1 -18 -6 -23z m-12 18 c0 -3 -4
-8 -10 -11 -5 -3 -10 -1 -10 4 0 6 5 11 10 11 6 0 10 -2 10 -4z m20 -46 c0 -5
-4 -10 -10 -10 -5 0 -10 5 -10 10 0 6 5 10 10 10 6 0 10 -4 10 -10z m-17 -33
c3 -8 0 -14 -7 -14 -7 0 -13 6 -13 14 0 7 4 13 8 13 4 0 9 -6 12 -13z m18912
-695 c-3 -3 -11 0 -18 7 -9 10 -8 11 6 5 10 -3 15 -9 12 -12z m30 -261 c3 -5
2 -12 -3 -15 -5 -3 -9 1 -9 9 0 17 3 19 12 6z m-169 -1233 c3 -4 -1 -5 -10 -4
-8 1 -18 5 -22 8 -3 4 1 5 10 4 8 -1 18 -5 22 -8z m-36 -118 c0 -5 -2 -10 -4
-10 -3 0 -8 5 -11 10 -3 6 -1 10 4 10 6 0 11 -4 11 -10z m-169 -573 c-10 -9
-11 -8 -5 6 3 10 9 15 12 12 3 -3 0 -11 -7 -18z m-17951 -161 c0 -3 -4 -8 -10
-11 -5 -3 -10 -1 -10 4 0 6 5 11 10 11 6 0 10 -2 10 -4z"/>
<path d="M18345 22940 c-3 -6 1 -7 9 -4 18 7 21 14 7 14 -6 0 -13 -4 -16 -10z"/>
</g>
</svg>
