<svg xmlns="http://www.w3.org/2000/svg" viewBox="0 0 1844.45 1844.45"><defs><style>.cls-1{fill:none;}.cls-2{fill:#fff;}.cls-3{fill:#222;}.cls-4{fill:#ce0e2d;}</style></defs><g id="Layer_2" data-name="Layer 2"><g id="LOGO"><path class="cls-1" d="M1020.2,1136.47l0,0-312-179a30.1,30.1,0,0,0-14.91-3.94l-210.68-.3c-9.45,0-18,4.31-22.79,11.51a22.84,22.84,0,0,0-1,24l93.78,173.54h0l.26.48a26.91,26.91,0,0,0,10.43,10.58l.19.1h0l311.83,178.93a30.24,30.24,0,0,0,14.94,3.94c9.42,0,17.94-4.31,22.77-11.51L1029.65,1171C1037.44,1159.41,1033.2,1143.9,1020.2,1136.47Zm7.85,34.46L912,1343.69c-4.8,7.17-13.27,11.45-22.63,11.45a30,30,0,0,1-14.86-3.92L564.47,1173.29h0l-.19-.11a26.72,26.72,0,0,1-10.37-10.51l-.26-.48h0L460.39,989.63a22.71,22.71,0,0,1,1-23.85c4.8-7.16,13.27-11.45,22.67-11.45l209.49.3a29.91,29.91,0,0,1,14.83,3.92l310.23,178h0C1031.57,1144,1035.79,1159.39,1028.05,1170.93Z"/><path class="cls-2" d="M1560.42,0H284C127.16,0,0,127.16,0,284V1560.42c0,156.87,127.16,284,284,284H1560.42c156.87,0,284-127.16,284-284V284C1844.45,127.16,1717.29,0,1560.42,0ZM1247.16,1458.77c-43.92,32.84-94.21,58.48-149.62,76.24a2,2,0,0,0-1.43,1.94v52.61a34.23,34.23,0,0,1-34.22,34.23H787.16a34.24,34.24,0,0,1-34.23-34.23V1556a1.87,1.87,0,0,0-1.57-1.84A882.85,882.85,0,0,1,643.3,1530c-80.57-25.18-125.58-44.64-137.63-59.5l-.81-1v-1.23L506.53,1179l-.09-.14-95.68-177.06c-20.65-38.21-.12-88.77,42.74-95.75a73.39,73.39,0,0,1,11.83-1l90.12.13c-5.73-4.72-11.56-9.61-17-14.9C485.72,838.16,459,760.74,459,660.23c0-59.1,13.66-112.81,40.58-159.62C526.48,454,562.48,413.53,606.65,380.4c41.8-31.26,90.5-55.77,144.84-72.87a2,2,0,0,0,1.44-1.94V251.23a27.13,27.13,0,0,1,27.14-27.13H1069a27.13,27.13,0,0,1,27.14,27.13v44.94a2.12,2.12,0,0,0,1.65,2c24.34,5.73,44.82,11.52,64.15,18.11,69.45,23.32,110.44,36.33,121.84,38.66l3.1.63V699l-6.26-4.06c-55.24-35.9-101.49-65-137.45-86.36-35.32-20.94-61.53-35.1-77.91-42.1-31.35-15-71.25-22.59-118.74-22.59-14.72,0-30.73,2.32-47.62,6.91a173.77,173.77,0,0,0-44.79,18.94,112.4,112.4,0,0,0-32.34,29.86C813.31,611.28,809,624,809,637.29c0,39.35,33.24,71.44,98.78,95.4C940.72,744.4,975.11,756.27,1010,768c34.23,11.48,70.57,23.95,108,37.06,74,22.38,138.23,61.29,190.7,115.61,54,52.23,81.35,130.83,81.35,233.61C1390,1285.32,1342,1387.78,1247.16,1458.77Z"/><path class="cls-3" d="M1118,805c-37.45-13.11-73.79-25.58-108-37.06-34.85-11.68-69.24-23.55-102.14-35.26-65.54-24-98.78-56.05-98.78-95.4,0-13.34,4.27-26,12.7-37.66a112.4,112.4,0,0,1,32.34-29.86,173.77,173.77,0,0,1,44.79-18.94c16.89-4.59,32.9-6.91,47.62-6.91,47.49,0,87.39,7.58,118.74,22.59,16.38,7,42.59,21.16,77.91,42.1,36,21.4,82.21,50.46,137.45,86.36l6.26,4.06V355.59l-3.1-.63c-11.4-2.33-52.39-15.34-121.84-38.66-19.33-6.59-39.81-12.38-64.15-18.11a2.12,2.12,0,0,1-1.65-2V251.23A27.13,27.13,0,0,0,1069,224.1H780.07a27.13,27.13,0,0,0-27.14,27.13v54.36a2,2,0,0,1-1.44,1.94c-54.34,17.1-103,41.61-144.84,72.87C562.48,413.53,526.48,454,499.59,500.61,472.67,547.42,459,601.13,459,660.23c0,100.51,26.71,177.93,79.43,230.1,5.45,5.29,11.28,10.18,17,14.9l-90.12-.13a73.39,73.39,0,0,0-11.83,1c-42.86,7-63.39,57.54-42.74,95.75l95.68,177.06.09.14-1.67,289.24v1.23l.81,1c12.05,14.86,57.06,34.32,137.63,59.5a882.85,882.85,0,0,0,108.06,24.18,1.87,1.87,0,0,1,1.57,1.84v33.57a34.24,34.24,0,0,0,34.23,34.23h274.73a34.23,34.23,0,0,0,34.22-34.23V1537a2,2,0,0,1,1.43-1.94c55.41-17.76,105.7-43.4,149.62-76.24,94.8-71,142.87-173.45,142.87-304.54,0-102.78-27.35-181.38-81.35-233.61C1256.21,866.3,1192,827.39,1118,805Zm-88.33,366L913,1344.76c-4.83,7.2-13.35,11.51-22.77,11.51a30.24,30.24,0,0,1-14.94-3.94L563.45,1173.4h0l-.19-.1a26.91,26.91,0,0,1-10.43-10.58l-.26-.48h0L458.78,988.69a22.84,22.84,0,0,1,1-24c4.83-7.2,13.34-11.51,22.79-11.51l210.68.3a30.1,30.1,0,0,1,14.91,3.94l312,179,0,0C1033.2,1143.9,1037.44,1159.41,1029.65,1171Z"/><path class="cls-4" d="M1018.65,1136.57h0l-310.23-178a29.91,29.91,0,0,0-14.83-3.92l-209.49-.3c-9.4,0-17.87,4.29-22.67,11.45a22.71,22.71,0,0,0-1,23.85l93.25,172.55h0l.26.48a26.72,26.72,0,0,0,10.37,10.51l.19.11h0l310.08,177.93a30,30,0,0,0,14.86,3.92c9.36,0,17.83-4.28,22.63-11.45l116-172.76C1035.79,1159.39,1031.57,1144,1018.65,1136.57Zm-390.27-91.31c-4.59,11.68-13.9,21.15-26.15,26.65a55.66,55.66,0,0,1-22.77,4.85c-18.7,0-36.5-9.37-45-25.57-12-22.8-1.1-50.62,24.27-62s55.81-2.09,67.79,20.71A41.89,41.89,0,0,1,628.38,1045.26Z"/><path class="cls-3" d="M558.71,989.2c-25.37,11.37-36.26,39.19-24.27,62,8.52,16.2,26.32,25.57,45,25.57a55.66,55.66,0,0,0,22.77-4.85c12.25-5.5,21.56-15,26.15-26.65a41.89,41.89,0,0,0-1.88-35.35C614.52,987.11,584.11,977.82,558.71,989.2Z"/></g></g></svg>